# xmcd
#
# Track frame offsets: 
#        225
#        12977
#        26570
#        43592
#        58451
#        71566
#        83804
#        95977
#        121128
#        136715
#        148729
#        165140
#        176384
#        188095
#        203956
#        218038
#        242640
#
# Disc length: 4095 seconds
#
# Revision: 0
# Processed by: cddbd v1.5.2PL0 Copyright (c) Steve Scherf et al.
# Submitted via: ExactAudioCopy v1.0b1
#
DISCID=ed0ffc11
DTITLE=Alexander's Ragtime Band - Rag in Time
DYEAR=1900
DGENRE=
TTITLE0=Maple Leaf Rag
TTITLE1=Grace and Beauty
TTITLE2=The Crush Collision March
TTITLE3=Original Rags
TTITLE4=Elite Syncopations
TTITLE5=Kinklets
TTITLE6=Peacherine Rag
TTITLE7=Solace
TTITLE8=Magnetic Rag
TTITLE9=Antoinette
TTITLE10=The Entertainer
TTITLE11=Temptation Rag
TTITLE12=The Entertainer's Rag
TTITLE13=China Rag
TTITLE14=Ivory's Tickler Rag
TTITLE15=Alexander's Ragtime Band
TTITLE16=backstage and interview
EXTD=
EXTT0=
EXTT1=
EXTT2=
EXTT3=
EXTT4=
EXTT5=
EXTT6=
EXTT7=
EXTT8=
EXTT9=
EXTT10=
EXTT11=
EXTT12=
EXTT13=
EXTT14=
EXTT15=
EXTT16=
PLAYORDER=
